<svg width="14" height="14" viewBox="0 0 14 14" fill="none" xmlns="http://www.w3.org/2000/svg">
<path d="M6.99337 0.333344C3.31337 0.333344 0.333374 3.32001 0.333374 7.00001C0.333374 10.68 3.31337 13.6667 6.99337 13.6667C10.68 13.6667 13.6667 10.68 13.6667 7.00001C13.6667 3.32001 10.68 0.333344 6.99337 0.333344ZM11.6134 4.33334H9.6467C9.43805 3.50765 9.12909 2.71061 8.7267 1.96001C9.94278 2.37868 10.9675 3.22116 11.6134 4.33334ZM7.00004 1.69334C7.55337 2.49334 7.9867 3.38001 8.27337 4.33334H5.72671C6.01337 3.38001 6.4467 2.49334 7.00004 1.69334ZM1.84004 8.33334C1.73337 7.90667 1.66671 7.46001 1.66671 7.00001C1.66671 6.54001 1.73337 6.09334 1.84004 5.66667H4.09337C4.04004 6.10667 4.00004 6.54667 4.00004 7.00001C4.00004 7.45334 4.04004 7.89334 4.09337 8.33334H1.84004ZM2.38671 9.66667H4.35337C4.56671 10.5 4.87337 11.3 5.27337 12.04C4.05602 11.6236 3.03059 10.7806 2.38671 9.66667ZM4.35337 4.33334H2.38671C3.03059 3.21946 4.05602 2.37639 5.27337 1.96001C4.87099 2.71061 4.56202 3.50765 4.35337 4.33334ZM7.00004 12.3067C6.4467 11.5067 6.01337 10.62 5.72671 9.66667H8.27337C7.9867 10.62 7.55337 11.5067 7.00004 12.3067ZM8.56004 8.33334H5.44004C5.38004 7.89334 5.33337 7.45334 5.33337 7.00001C5.33337 6.54667 5.38004 6.10001 5.44004 5.66667H8.56004C8.62004 6.10001 8.6667 6.54667 8.6667 7.00001C8.6667 7.45334 8.62004 7.89334 8.56004 8.33334ZM8.7267 12.04C9.1267 11.3 9.43337 10.5 9.6467 9.66667H11.6134C10.9675 10.7789 9.94278 11.6213 8.7267 12.04ZM9.9067 8.33334C9.96004 7.89334 10 7.45334 10 7.00001C10 6.54667 9.96004 6.10667 9.9067 5.66667H12.16C12.2667 6.09334 12.3334 6.54001 12.3334 7.00001C12.3334 7.46001 12.2667 7.90667 12.16 8.33334H9.9067Z" fill="white"/>
</svg>
